# xmcd
#
# Track frame offsets:
#	150
#	15119
#	33750
#	49196
#	63848
#	83232
#	97438
#	115111
#	129765
#	150099
#	170947
#	192716
#
# Disc length: 2772 seconds
#
# Revision: 1
# Processed by: cddbd v1.5.1PL0 Copyright (c) Steve Scherf et al.
# Submitted via: EasyCDDAExtractor 7.0.0.1
#
DISCID=910ad20c
DTITLE=Julie Roberts
DYEAR=2004
DGENRE=Country
TTITLE0=You Ain't Down Home	
TTITLE1=Break Down Here
TTITLE2=Pot of Gold
TTITLE3=Unlove Me
TTITLE4=Just 'Cause We Can
TTITLE5=Wake Up Older
TTITLE6=If You Had Called Yesterday
TTITLE7=No Way Out
TTITLE8=I Can't Get Over You
TTITLE9=Rain on a Tin Roof
TTITLE10=The Chance
TTITLE11=Wake Up Older (Sessions@AOL) [Bonus Track]
EXTD=
EXTT0=
EXTT1=
EXTT2=
EXTT3=
EXTT4=
EXTT5=
EXTT6=
EXTT7=
EXTT8=
EXTT9=
EXTT10=
EXTT11=
PLAYORDER=
